<mxfile host="app.diagrams.net" modified="2024-06-24T20:48:13.409Z" agent="Mozilla/5.0 (Windows NT 10.0; Win64; x64) AppleWebKit/537.36 (KHTML, like Gecko) Chrome/124.0.0.0 Safari/537.36 OPR/110.0.0.0" version="24.4.4" etag="7Xbbs3LbNJSFJqXKFE2K" type="github">
  <diagram name="PÃ¡gina-1" id="7xSd_cGRXvkDPzWy1omx">
    <mxGraphModel>
      <root>
        <mxCell id="0" />
        <mxCell id="1" parent="0" />
      </root>
    </mxGraphModel>
  </diagram>
</mxfile>
